<svg xmlns="http://www.w3.org/2000/svg" viewBox="0 0 512 512">
	<rect width="512" height="512" rx="112" fill="#f3eadc"/>
	<rect x="64" y="64" width="384" height="384" rx="36" fill="#fffaf2" stroke="#27211d" stroke-width="18"/>
	<path d="M192 72v368M320 72v368M72 192h368M72 320h368" stroke="#27211d" stroke-width="15"/>
	<path d="M106.7 72v368M149.3 72v368M234.7 72v368M277.3 72v368M362.7 72v368M405.3 72v368M72 106.7h368M72 149.3h368M72 234.7h368M72 277.3h368M72 362.7h368M72 405.3h368" stroke="#b9aa99" stroke-width="5"/>
	<g fill="#c75136" font-family="Georgia,serif" font-size="72" font-weight="700" text-anchor="middle">
		<text x="128" y="169">9</text>
		<text x="256" y="297">3</text>
		<text x="384" y="425">6</text>
	</g>
</svg>
